HIERARCHY
ROOT Hips
{
	OFFSET 55.720501 -36.664516 91.631195
	CHANNELS 6 Xposition Yposition Zposition Xrotation Yrotation Zrotation
	JOINT spine
	{
		OFFSET 0.000000 -0.393700 6.846367
		CHANNELS 3 Xrotation Yrotation Zrotation
		JOINT spine1
		{
			OFFSET 0.000000 -0.000004 9.496208
			CHANNELS 3 Xrotation Yrotation Zrotation
			JOINT spine2
			{
				OFFSET 0.000000 0.000000 9.099091
				CHANNELS 3 Xrotation Yrotation Zrotation
				JOINT Neck
				{
					OFFSET 0.000000 -1.113785 23.361206
					CHANNELS 3 Xrotation Yrotation Zrotation
					JOINT Head
					{
						OFFSET 0.000000 0.000000 7.058014
						CHANNELS 3 Xrotation Yrotation Zrotation
						End Site
						{
							OFFSET 0.000000 5.634186 17.084396
						}
					}
				}
				JOINT RightShoulder
				{
					OFFSET -3.831360 0.533489 9.826309
					CHANNELS 3 Xrotation Yrotation Zrotation
					JOINT RightArm
					{
						OFFSET 0.000000 -0.000004 12.888107
						CHANNELS 3 Xrotation Yrotation Zrotation
						JOINT RightArmRoll
						{
							OFFSET 0.000000 0.000000 6.506165
							CHANNELS 3 Xrotation Yrotation Zrotation
							JOINT RightForeArm
							{
								OFFSET 0.000000 -0.000004 18.950104
								CHANNELS 3 Xrotation Yrotation Zrotation
								JOINT RightForeArmRoll
								{
									OFFSET 0.000000 0.000000 7.300919
									CHANNELS 3 Xrotation Yrotation Zrotation
									JOINT RightHand
									{
										OFFSET 0.000000 -0.000004 14.651398
										CHANNELS 3 Xrotation Yrotation Zrotation
										End Site
										{
											OFFSET 0.000000 0.000000 0.100006
										}
									}
								}
							}
						}
					}
				}
				JOINT LeftShoulder
				{
					OFFSET 3.831360 0.533489 9.826309
					CHANNELS 3 Xrotation Yrotation Zrotation
					JOINT LeftArm
					{
						OFFSET 0.000000 -0.000004 12.888107
						CHANNELS 3 Xrotation Yrotation Zrotation
						JOINT LeftArmRoll
						{
							OFFSET 0.000000 0.000000 6.506165
							CHANNELS 3 Xrotation Yrotation Zrotation
							JOINT LeftForeArm
							{
								OFFSET 0.000000 -0.000004 18.950104
								CHANNELS 3 Xrotation Yrotation Zrotation
								JOINT LeftForeArmRoll
								{
									OFFSET 0.000000 0.000000 7.300919
									CHANNELS 3 Xrotation Yrotation Zrotation
									JOINT LeftHand
									{
										OFFSET 0.000000 -0.000004 14.651398
										CHANNELS 3 Xrotation Yrotation Zrotation
										End Site
										{
											OFFSET 0.000000 0.000000 0.100006
										}
									}
								}
							}
						}
					}
				}
			}
		}
	}
	JOINT RightUpLeg
	{
		OFFSET -6.068371 0.933475 -1.112778
		CHANNELS 3 Xrotation Yrotation Zrotation
		JOINT RightUpLegRoll
		{
			OFFSET 0.000000 -0.000004 17.179604
			CHANNELS 3 Xrotation Yrotation Zrotation
			JOINT RightLeg
			{
				OFFSET 0.000000 0.000004 -21.274300
				CHANNELS 3 Xrotation Yrotation Zrotation
				JOINT RightLegRoll
				{
					OFFSET 0.000000 -0.000004 21.343903
					CHANNELS 3 Xrotation Yrotation Zrotation
					JOINT RightFoot
					{
						OFFSET 0.000000 0.000000 17.765198
						CHANNELS 3 Xrotation Yrotation Zrotation
						JOINT RightToeBase
						{
							OFFSET 0.000000 -0.000004 14.850815
							CHANNELS 3 Xrotation Yrotation Zrotation
							End Site
							{
								OFFSET 0.006294 0.829006 7.192123
							}
						}
					}
				}
			}
		}
	}
	JOINT LeftUpLeg
	{
		OFFSET 6.068371 0.933475 -1.112778
		CHANNELS 3 Xrotation Yrotation Zrotation
		JOINT LeftUpLegRoll
		{
			OFFSET 0.000000 -0.000004 17.179703
			CHANNELS 3 Xrotation Yrotation Zrotation
			JOINT LeftLeg
			{
				OFFSET 0.000000 -0.000004 21.274200
				CHANNELS 3 Xrotation Yrotation Zrotation
				JOINT LeftLegRoll
				{
					OFFSET 0.000000 0.000000 21.541199
					CHANNELS 3 Xrotation Yrotation Zrotation
					JOINT LeftFoot
					{
						OFFSET 0.000000 -0.000004 17.567902
						CHANNELS 3 Xrotation Yrotation Zrotation
						JOINT LeftToeBase
						{
							OFFSET 0.000000 -0.000004 14.850800
							CHANNELS 3 Xrotation Yrotation Zrotation
							End Site
							{
								OFFSET -0.028210 0.829002 7.192139
							}
						}
					}
				}
			}
		}
	}
}
MOTION
Frames: 13
Frame Time: 0.041667
54.356998 -16.272516 82.095886 33.854434 5.334838 -3.204685 -0.647507 -0.332727 0.410000 2.710244 -0.663479 0.817516 4.355296 -0.653600 0.825430 -21.268820 -14.257996 -4.468602 5.513006 7.477328 -0.014663 16.062266 -70.862243 16.217543 -79.596224 -132.392316 -103.093673 0.000000 -0.000000 -0.000001 13.302072 -32.076433 5.839766 0.000002 -0.000003 -3.007041 -4.999745 -7.998836 -0.000005 -6.747976 46.297191 6.830888 -50.721118 154.126524 44.681086 0.000002 0.000001 0.000006 0.094926 12.507187 2.459382 -0.000002 -0.000004 3.303469 -5.000276 7.999897 -0.000148 -70.452923 -182.467138 -1.703543 179.999991 -0.000005 -0.492998 140.358174 -3.367768 -2.610404 -0.000002 0.000005 0.669556 67.134981 6.941673 2.136035 25.456858 -7.355620 0.000000 -72.834023 165.525222 0.965661 -0.000001 -0.000005 -0.424367 -47.428403 5.496455 4.096708 -0.000002 0.000001 -0.647437 70.103545 -6.944517 -1.910985 25.456953 7.355613 -0.000012 
54.352501 -16.373215 82.176582 33.731955 5.331530 -3.173866 -0.654324 -0.332821 0.408649 2.696590 -0.663022 0.814243 4.341643 -0.653170 0.822158 -21.310549 -14.262766 -4.467798 5.618015 7.440325 -0.007088 16.149041 -70.922526 16.300079 -79.561438 -132.360132 -102.898822 -0.000000 0.000000 0.000003 13.076252 -32.043887 5.760626 0.000002 0.000000 -3.007039 -4.999745 -7.998838 -0.000006 -6.796032 46.314751 6.893692 -50.623153 154.180456 44.265541 0.000001 0.000000 0.000006 0.092179 12.162589 2.412319 -0.000002 -0.000004 3.303562 -5.000274 7.999901 -0.000147 -70.139404 -182.482342 -1.740773 179.999991 -0.000005 -0.493996 140.542248 -3.335676 -2.586946 -0.000002 0.000005 0.664898 67.128861 6.940806 2.138347 25.456856 -7.355620 0.000000 -72.508168 165.552188 0.949548 -0.000003 -0.000004 -0.426332 -47.239962 5.502588 4.078230 -0.000001 0.000001 -0.643635 70.106687 -6.943437 -1.913399 25.456952 7.355613 -0.000013 
54.341400 -16.466709 82.268387 33.608134 5.327394 -3.142358 -0.660973 -0.332782 0.407093 2.683292 -0.662285 0.810558 4.328340 -0.652466 0.818472 -21.354274 -14.264708 -4.465068 5.725953 7.399470 0.002176 16.235399 -70.982427 16.382166 -79.526693 -132.327320 -102.709099 0.000000 -0.000000 0.000004 12.853457 -32.009285 5.682837 0.000002 -0.000000 -3.007039 -4.999745 -7.998836 -0.000008 -6.846806 46.331721 6.959915 -50.523551 154.233799 43.849073 0.000002 -0.000000 0.000005 0.089435 11.817486 2.363383 -0.000001 -0.000004 3.303568 -5.000275 7.999896 -0.000148 -69.824286 -182.496603 -1.778168 179.999991 -0.000005 -0.493995 140.726964 -3.301820 -2.561427 -0.000002 0.000005 0.660233 67.122543 6.939956 2.140672 25.456856 -7.355621 0.000000 -72.181077 165.580533 0.934224 -0.000000 -0.000005 -0.428307 -47.051650 5.508009 4.059533 -0.000003 0.000001 -0.639872 70.110164 -6.942399 -1.915699 25.456948 7.355613 -0.000012 
54.339199 -16.568808 82.346886 33.483367 5.322657 -3.110234 -0.667550 -0.332651 0.405378 2.670135 -0.661360 0.806565 4.315191 -0.651579 0.814476 -21.398655 -14.264877 -4.460839 5.835443 7.356402 0.012805 16.321792 -71.041918 16.464302 -79.492317 -132.293224 -102.524370 -0.000000 -0.000001 0.000003 12.634839 -31.973137 5.606767 0.000001 0.000000 -3.007039 -4.999744 -7.998841 -0.000008 -6.899438 46.348561 7.028508 -50.422253 154.287375 43.430332 0.000002 0.000000 0.000006 0.086695 11.471889 2.312756 -0.000001 -0.000004 3.303520 -5.000275 7.999899 -0.000148 -69.508089 -182.510222 -1.814998 179.999991 -0.000005 -0.495005 140.912130 -3.268506 -2.537754 -0.000002 0.000005 0.655557 67.116219 6.939102 2.142798 25.456853 -7.355621 0.000000 -71.852907 165.610408 0.918435 -0.000003 -0.000003 -0.430291 -46.863082 5.512713 4.040592 -0.000002 0.000001 -0.636151 70.113756 -6.941399 -1.917897 25.456950 7.355613 -0.000013 
54.331699 -16.667818 82.438293 33.358176 5.317540 -3.077582 -0.674167 -0.332464 0.403551 2.656890 -0.660346 0.802374 4.301943 -0.650605 0.810279 -21.442563 -14.264430 -4.455580 5.945139 7.312767 0.024452 16.408959 -71.101347 16.547243 -79.458473 -132.257393 -102.344251 -0.000000 0.000000 0.000001 12.421269 -31.935755 5.532556 0.000003 0.000001 -3.007039 -4.999746 -7.998837 -0.000007 -6.953075 46.365616 7.098399 -50.320544 154.339353 43.011470 0.000002 0.000001 0.000005 0.083960 11.125891 2.260618 -0.000002 -0.000002 3.303429 -5.000274 7.999900 -0.000149 -69.191319 -182.522804 -1.852394 179.999991 -0.000005 -0.496004 141.097898 -3.234178 -2.512658 -0.000002 0.000005 0.650873 67.109689 6.938265 2.145040 25.456860 -7.355620 0.000000 -71.524546 165.641335 0.903520 -0.000000 -0.000003 -0.432283 -46.674128 5.516659 4.021391 -0.000002 0.000001 -0.632471 70.117254 -6.940424 -1.920006 25.456948 7.355614 -0.000013 
54.332802 -16.771009 82.521576 33.233091 5.312266 -3.044481 -0.680932 -0.332258 0.401654 2.643344 -0.659339 0.798088 4.288403 -0.649638 0.805989 -21.484645 -14.264329 -4.449681 6.053700 7.270199 0.036752 16.497531 -71.160865 16.631628 -79.425312 -132.218966 -102.168531 0.000000 0.000000 -0.000000 12.214121 -31.897639 5.460688 0.000002 -0.000000 -3.007040 -4.999744 -7.998835 -0.000005 -7.006858 46.383429 7.168541 -50.218372 154.390498 42.591072 0.000002 0.000000 0.000005 0.081227 10.779191 2.207128 -0.000002 -0.000002 3.303310 -5.000274 7.999898 -0.000149 -68.874480 -182.534593 -1.889650 179.999991 -0.000005 -0.496003 141.284307 -3.200414 -2.488418 -0.000002 0.000005 0.646179 67.103064 6.937452 2.147093 25.456858 -7.355621 -0.000000 -71.196533 165.673123 0.889656 -0.000001 -0.000005 -0.434281 -46.484410 5.519835 4.001875 -0.000001 0.000001 -0.628837 70.120628 -6.939418 -1.922221 25.456948 7.355614 -0.000012 
54.336300 -16.863512 82.611992 33.108516 5.307057 -3.010998 -0.687945 -0.332072 0.399732 2.629294 -0.658435 0.793815 4.274343 -0.648775 0.801712 -21.523765 -14.265723 -4.443628 6.159757 7.230332 0.049328 16.588050 -71.220513 16.718018 -79.393019 -132.177507 -101.996731 0.000000 -0.000000 -0.000000 12.014141 -31.859154 5.391232 0.000003 0.000000 -3.007038 -4.999745 -7.998835 -0.000006 -7.059923 46.402270 7.237852 -50.117087 154.439047 42.171306 0.000001 -0.000000 0.000005 0.078498 10.431992 2.152476 -0.000002 -0.000005 3.303170 -5.000274 7.999897 -0.000148 -68.557983 -182.545562 -1.926928 179.999991 -0.000005 -0.497001 141.471345 -3.167211 -2.464996 -0.000002 0.000005 0.641474 67.096336 6.936627 2.149250 25.456854 -7.355620 0.000000 -70.869018 165.706236 0.875338 0.000000 -0.000004 -0.436290 -46.293895 5.522193 3.982057 -0.000003 0.000001 -0.625249 70.123585 -6.938437 -1.924463 25.456945 7.355613 -0.000012 
54.326900 -16.964514 82.691986 32.984968 5.302132 -2.977203 -0.695337 -0.331941 0.397830 2.614488 -0.657728 0.789660 4.259539 -0.648108 0.797554 -21.558362 -14.269595 -4.437760 6.261971 7.194781 0.061790 16.681298 -71.280646 16.807229 -79.361874 -132.132263 -101.828886 0.000000 -0.000000 0.000002 11.822675 -31.820707 5.324590 0.000003 -0.000001 -3.007036 -4.999746 -7.998841 -0.000008 -7.111382 46.422484 7.305253 -50.016533 154.485710 41.750795 0.000002 0.000001 0.000005 0.075773 10.084195 2.096832 -0.000002 -0.000006 3.303039 -5.000274 7.999901 -0.000149 -68.242469 -182.556012 -1.963438 179.999991 -0.000005 -0.497998 141.659025 -3.134581 -2.441398 -0.000002 0.000005 0.636759 67.089478 6.935750 2.151504 25.456858 -7.355619 -0.000000 -70.542918 165.739704 0.862708 -0.000003 -0.000005 -0.438300 -46.102308 5.523705 3.961886 -0.000003 0.000000 -0.621709 70.126023 -6.937443 -1.926735 25.456943 7.355613 -0.000012 
54.339996 -17.068617 82.782982 32.862769 5.297743 -2.943164 -0.703207 -0.331902 0.395991 2.598728 -0.657314 0.785730 4.243782 -0.647735 0.793624 -21.587520 -14.277075 -4.432633 6.358987 7.165167 0.073731 16.777832 -71.341305 16.899821 -79.331793 -132.082690 -101.664115 -0.000000 -0.000000 0.000003 11.640645 -31.782749 5.260953 0.000003 -0.000001 -3.007041 -4.999745 -7.998841 -0.000010 -7.160407 46.444634 7.369713 -49.917338 154.529984 41.329884 0.000001 -0.000000 0.000006 0.073052 9.735766 2.040366 -0.000003 -0.000005 3.302921 -5.000274 7.999898 -0.000149 -67.928335 -182.565929 -1.999338 179.999991 -0.000005 -0.497998 141.847552 -3.102521 -2.417617 -0.000002 0.000005 0.632034 67.082416 6.934889 2.153875 25.456863 -7.355619 -0.000000 -70.218497 165.774005 0.850298 -0.000003 -0.000005 -0.440314 -45.909335 5.524351 3.941351 -0.000003 0.000001 -0.618220 70.127806 -6.936435 -1.929147 25.456947 7.355614 -0.000013 
54.335995 -17.168512 82.866684 32.742622 5.294087 -2.908959 -0.711672 -0.331996 0.394262 2.581798 -0.657291 0.782132 4.226851 -0.647749 0.790029 -21.609779 -14.289046 -4.428564 6.449465 7.143111 0.084729 16.878441 -71.402736 16.996617 -79.302991 -132.028171 -101.502417 -0.000000 -0.000000 0.000004 11.469120 -31.745814 5.200587 0.000003 0.000001 -3.007040 -4.999747 -7.998838 -0.000009 -7.206128 46.468970 7.430144 -49.820537 154.570678 40.909801 0.000002 0.000000 0.000005 0.070334 9.386646 1.983269 -0.000002 -0.000005 3.302829 -5.000275 7.999898 -0.000149 -67.616031 -182.575683 -2.033851 179.999991 -0.000005 -0.498995 142.036789 -3.071838 -2.395271 -0.000002 0.000005 0.627298 67.075340 6.933945 2.156328 25.456858 -7.355621 -0.000000 -69.896393 165.808853 0.838554 0.000001 -0.000004 -0.442334 -45.714763 5.524106 3.920421 -0.000002 0.000001 -0.614782 70.128619 -6.935408 -1.931815 25.456947 7.355614 -0.000014 
54.327099 -17.268908 82.953697 32.624866 5.291408 -2.874640 -0.720831 -0.332259 0.392685 2.563477 -0.657752 0.778969 4.208529 -0.648245 0.786874 -21.623903 -14.306759 -4.426071 6.532060 7.130224 0.094360 16.983732 -71.465089 17.098231 -79.275649 -131.967915 -101.343301 0.000000 -0.000000 0.000003 11.309140 -31.710072 5.143669 0.000003 0.000000 -3.007042 -4.999746 -7.998838 -0.000008 -7.247677 46.496052 7.485499 -49.726175 154.607834 40.489928 0.000002 0.000001 0.000005 0.067621 9.036819 1.925698 -0.000001 -0.000004 3.302782 -5.000274 7.999897 -0.000149 -67.306091 -182.584835 -2.068014 179.999991 -0.000005 -0.498995 142.226805 -3.043337 -2.373935 -0.000002 0.000005 0.622551 67.068141 6.932953 2.158981 25.456854 -7.355620 -0.000000 -69.577027 165.843864 0.827956 -0.000000 -0.000004 -0.444356 -45.518495 5.522922 3.899086 -0.000002 0.000000 -0.611396 70.128394 -6.934389 -1.934550 25.456947 7.355613 -0.000013 
54.327900 -17.370310 83.037292 32.509983 5.289934 -2.840272 -0.730803 -0.332728 0.391307 2.543538 -0.658796 0.776348 4.188594 -0.649319 0.784267 -21.628668 -14.331272 -4.425587 6.605438 7.128121 0.102190 17.094423 -71.528494 17.205414 -79.249824 -131.901417 -101.186527 0.000000 -0.000001 0.000002 11.161782 -31.676259 5.090494 0.000003 -0.000001 -3.007039 -4.999741 -7.998837 -0.000007 -7.284205 46.526238 7.534697 -49.634797 154.640851 40.070507 0.000001 0.000001 0.000006 0.064911 8.686258 1.867837 -0.000001 -0.000003 3.302801 -5.000274 7.999897 -0.000149 -66.999074 -182.593756 -2.101026 179.999991 -0.000005 -0.500006 142.417668 -3.015442 -2.351383 -0.000002 0.000005 0.617793 67.060819 6.931908 2.161829 25.456856 -7.355619 0.000000 -69.261260 165.878807 0.819163 -0.000000 -0.000004 -0.446382 -45.320132 5.520788 3.877324 -0.000003 0.000001 -0.608066 70.126973 -6.933312 -1.937550 25.456945 7.355613 -0.000012 
54.334499 -17.481016 83.129295 32.397691 5.289478 -2.805457 -0.741550 -0.333348 0.389955 2.522029 -0.660346 0.773957 4.167084 -0.650898 0.781894 -21.624825 -14.361955 -4.425900 6.670952 7.135817 0.109343 17.213933 -71.592957 17.321848 -79.226335 -131.827500 -101.035928 0.000000 -0.000000 0.000002 11.031578 -31.643532 5.042426 0.000003 -0.000002 -3.007038 -4.999744 -7.998838 -0.000005 -7.317701 46.559016 7.580246 -49.545205 154.670795 39.648080 0.000001 0.000002 0.000006 0.062180 8.331918 1.808419 -0.000001 -0.000002 3.302860 -5.000274 7.999899 -0.000150 -66.694092 -182.602608 -2.132794 179.999991 -0.000005 -0.501003 142.610115 -2.989778 -2.330773 -0.000002 0.000005 0.613004 67.053074 6.930813 2.164795 25.456858 -7.355620 0.000000 -68.948226 165.914926 0.810397 0.000000 -0.000005 -0.448419 -45.119950 5.517460 3.855144 -0.000003 0.000001 -0.604815 70.124261 -6.932206 -1.940824 25.456945 7.355615 -0.000013 
